<svg width="161" height="24" viewBox="0 0 161 24" fill="none" xmlns="http://www.w3.org/2000/svg">
<g clip-path="url(#clip0_594_2094)">
<path d="M0.312012 20.888H2.55201V2.77603H0.312012V0.66403H18.136V6.61603H14.424V2.96803H7.73601V10.68H11.96V8.76003H14.328V14.904H11.96V12.984H7.73601V20.888H10.776V23H0.312012V20.888ZM24.3963 23.384C22.5829 23.384 21.2603 22.968 20.4283 22.136C19.6176 21.2827 19.2122 20.0987 19.2122 18.584C19.2122 15.2773 21.6549 13.624 26.5403 13.624H28.7803V11.8C28.7803 10.4987 28.5349 9.51736 28.0443 8.85603C27.5536 8.1947 26.7003 7.86403 25.4843 7.86403C25.0363 7.86403 24.6523 7.89603 24.3323 7.96003C24.0123 8.02403 23.7349 8.10936 23.5003 8.21603V8.37603C23.7136 8.4827 23.9163 8.6747 24.1083 8.95203C24.3216 9.22936 24.4283 9.6027 24.4283 10.072C24.4283 10.712 24.2256 11.256 23.8203 11.704C23.4149 12.1307 22.8069 12.344 21.9963 12.344C21.3563 12.344 20.8229 12.12 20.3963 11.672C19.9696 11.224 19.7563 10.6587 19.7563 9.97603C19.7563 9.46403 19.9056 8.9627 20.2043 8.47203C20.5029 7.96003 20.9509 7.51203 21.5483 7.12803C22.1456 6.74403 22.8816 6.4347 23.7563 6.20003C24.6523 5.96536 25.6763 5.84803 26.8283 5.84803C29.1536 5.84803 30.8709 6.34936 31.9803 7.35203C33.0896 8.33336 33.6443 9.7307 33.6443 11.544V20.888H35.5643V22.712C35.2016 22.9253 34.7323 23.0853 34.1562 23.192C33.5803 23.32 32.9829 23.384 32.3643 23.384C31.1909 23.384 30.3589 23.1173 29.8683 22.584C29.3989 22.0293 29.1643 21.3467 29.1643 20.536V20.472H28.9723C28.8229 20.8347 28.6309 21.1867 28.3963 21.528C28.1829 21.8693 27.8949 22.1787 27.5323 22.456C27.1909 22.7333 26.7643 22.9573 26.2523 23.128C25.7403 23.2987 25.1216 23.384 24.3963 23.384ZM26.2203 20.504C27.0096 20.504 27.6283 20.3227 28.0763 19.96C28.5456 19.5973 28.7803 18.968 28.7803 18.072V15.544H27.0523C26.0283 15.544 25.2603 15.7573 24.7483 16.184C24.2576 16.6107 24.0123 17.2187 24.0123 18.008V18.52C24.0123 19.2027 24.2149 19.704 24.6203 20.024C25.0256 20.344 25.5589 20.504 26.2203 20.504ZM37.6215 20.888H39.5415V9.46403L37.6215 9.04803V7.22403L44.3095 5.84803V9.01603H44.4375C44.7362 8.12003 45.2162 7.37336 45.8775 6.77603C46.5388 6.15736 47.4028 5.84803 48.4695 5.84803C49.5148 5.84803 50.3362 6.13603 50.9335 6.71203C51.5308 7.2667 51.8295 8.0347 51.8295 9.01603C51.8295 9.86936 51.6055 10.5413 51.1575 11.032C50.7095 11.5227 50.0802 11.768 49.2695 11.768C48.5015 11.768 47.9148 11.5653 47.5095 11.16C47.1042 10.7333 46.9015 10.232 46.9015 9.65603C46.9015 9.40003 46.9548 9.16536 47.0615 8.95203C47.1682 8.7387 47.2962 8.60003 47.4455 8.53603L47.4135 8.37603C47.3495 8.3547 47.2535 8.34403 47.1255 8.34403C46.7842 8.34403 46.4535 8.44003 46.1335 8.63203C45.8135 8.82403 45.5255 9.06936 45.2695 9.36803C45.0135 9.6667 44.8002 9.99736 44.6295 10.36C44.4802 10.7227 44.4055 11.0747 44.4055 11.416V20.888H46.9655V23H37.6215V20.888ZM53.4028 20.888H55.3228V9.46403L53.4028 9.04803V7.22403L60.0908 5.84803V9.01603H60.2508C60.5494 8.1627 61.0614 7.4267 61.7868 6.80803C62.5334 6.16803 63.5681 5.84803 64.8908 5.84803C66.3414 5.84803 67.4721 6.1147 68.2828 6.64803C69.1148 7.18136 69.6801 7.9707 69.9788 9.01603H70.1068C70.4481 8.18403 71.0241 7.44803 71.8348 6.80803C72.6454 6.16803 73.7228 5.84803 75.0668 5.84803C77.0721 5.84803 78.4801 6.36003 79.2908 7.38403C80.1228 8.40803 80.5388 9.9547 80.5388 12.024V20.888H82.4588V23H74.0108V20.888H75.6748V12.216C75.6748 11.0853 75.4828 10.2853 75.0988 9.81603C74.7361 9.32536 74.1068 9.08003 73.2108 9.08003C72.8481 9.08003 72.4961 9.13336 72.1548 9.24003C71.8134 9.32536 71.5041 9.4747 71.2268 9.68803C70.9708 9.88003 70.7574 10.136 70.5868 10.456C70.4374 10.776 70.3628 11.1493 70.3628 11.576V20.888H72.0268V23H63.8348V20.888H65.4988V12.216C65.4988 11.0853 65.3068 10.2853 64.9228 9.81603C64.5601 9.32536 63.9414 9.08003 63.0668 9.08003C62.3201 9.08003 61.6481 9.2827 61.0508 9.68803C60.4748 10.072 60.1868 10.7013 60.1868 11.576V20.888H61.8508V23H53.4028V20.888ZM84.5613 19.48L90.8973 13.208C91.8786 12.248 92.6786 11.2667 93.2973 10.264C93.9373 9.26136 94.2573 8.1627 94.2573 6.96803V6.04003C94.2573 4.8027 93.9266 3.86403 93.2653 3.22403C92.6253 2.58403 91.7613 2.26403 90.6733 2.26403C89.9479 2.26403 89.3293 2.36003 88.8173 2.55203V2.74403C89.1586 2.9787 89.4359 3.25603 89.6493 3.57603C89.8626 3.89603 89.9693 4.28003 89.9693 4.72803C89.9693 5.43203 89.7559 6.04003 89.3293 6.55203C88.9026 7.06403 88.2626 7.32003 87.4093 7.32003C86.6413 7.32003 86.0119 7.0747 85.5213 6.58403C85.0306 6.07203 84.7853 5.40003 84.7853 4.56803C84.7853 3.9707 84.9346 3.41603 85.2333 2.90403C85.5533 2.3707 86.0013 1.91203 86.5773 1.52803C87.1746 1.14403 87.8999 0.845362 88.7533 0.632028C89.6066 0.397362 90.5773 0.280029 91.6653 0.280029C94.2679 0.280029 96.2626 0.813362 97.6493 1.88003C99.0573 2.9467 99.7613 4.47203 99.7613 6.45603C99.7613 7.35203 99.5906 8.17336 99.2493 8.92003C98.9293 9.64536 98.4919 10.328 97.9373 10.968C97.4039 11.608 96.7853 12.216 96.0813 12.792C95.3773 13.3467 94.6413 13.912 93.8733 14.488L88.1773 18.712V18.84H98.1293V16.024H100.433V23H84.5613V19.48ZM108.357 20.888H110.885V14.072L104.869 2.77603H103.269V0.66403H112.677V2.77603H110.437L114.725 11.16H114.853L119.301 2.77603H117.061V0.66403H123.685V2.77603H122.053L116.069 13.368V20.888H118.597V23H108.357V20.888ZM130.937 21.08C132.9 21.08 133.881 19.9067 133.881 17.56V11.672C133.881 9.32536 132.9 8.15203 130.937 8.15203C128.974 8.15203 127.993 9.32536 127.993 11.672V17.56C127.993 19.9067 128.974 21.08 130.937 21.08ZM130.937 23.384C129.721 23.384 128.612 23.192 127.609 22.808C126.628 22.4027 125.774 21.8267 125.049 21.08C124.345 20.3333 123.801 19.416 123.417 18.328C123.033 17.24 122.841 16.0027 122.841 14.616C122.841 13.2293 123.033 11.992 123.417 10.904C123.801 9.81603 124.345 8.8987 125.049 8.15203C125.774 7.40536 126.628 6.84003 127.609 6.45603C128.612 6.0507 129.721 5.84803 130.937 5.84803C132.153 5.84803 133.252 6.0507 134.233 6.45603C135.236 6.84003 136.089 7.40536 136.793 8.15203C137.518 8.8987 138.073 9.81603 138.457 10.904C138.841 11.992 139.033 13.2293 139.033 14.616C139.033 16.0027 138.841 17.24 138.457 18.328C138.073 19.416 137.518 20.3333 136.793 21.08C136.089 21.8267 135.236 22.4027 134.233 22.808C133.252 23.192 132.153 23.384 130.937 23.384ZM148.474 23.384C146.426 23.384 144.975 22.872 144.122 21.848C143.29 20.8027 142.874 19.2453 142.874 17.176V9.46403L140.954 9.04803V7.22403L147.738 5.84803V17.016C147.738 18.1467 147.93 18.9573 148.314 19.448C148.719 19.9173 149.391 20.152 150.33 20.152C150.693 20.152 151.055 20.1093 151.418 20.024C151.781 19.9173 152.101 19.768 152.378 19.576C152.655 19.3627 152.879 19.1067 153.05 18.808C153.221 18.488 153.306 18.104 153.306 17.656V9.46403L151.386 9.04803V7.22403L158.17 5.84803V19.768L160.09 20.184V22.008L153.402 23.384V20.216H153.242C152.943 21.0693 152.41 21.816 151.642 22.456C150.874 23.0747 149.818 23.384 148.474 23.384Z" fill="#F4EAD2"/>
</g>
<defs>
<clipPath id="clip0_594_2094">
<rect width="161" height="24" fill="white"/>
</clipPath>
</defs>
</svg>
