<svg width="70" height="48" viewBox="0 0 70 48" fill="none" xmlns="http://www.w3.org/2000/svg">
<rect width="70" height="48" rx="4" fill="#F1ECE6"/>
<path d="M30.4707 35.5376L30.8998 32.8127L29.9442 32.7905H25.3809L28.5521 12.6822C28.5618 12.6215 28.5939 12.5649 28.6407 12.5247C28.6874 12.4845 28.7474 12.4623 28.8098 12.4623H36.5042C39.0587 12.4623 40.8214 12.9939 41.7419 14.0431C42.1733 14.5353 42.4482 15.0496 42.5811 15.6156C42.7204 16.2095 42.723 16.9191 42.5868 17.7845L42.5769 17.8477V18.4022L43.0085 18.6467C43.3719 18.8394 43.6605 19.0601 43.882 19.3128C44.2513 19.7336 44.49 20.2684 44.5908 20.9025C44.695 21.5547 44.6605 22.3307 44.49 23.2092C44.2931 24.2199 43.9748 25.1 43.545 25.8203C43.1495 26.4839 42.6458 27.0342 42.0479 27.4609C41.4769 27.8661 40.7985 28.1738 40.0316 28.3707C39.2882 28.5641 38.441 28.6619 37.5115 28.6619H36.9127C36.4846 28.6619 36.0685 28.8161 35.7422 29.0926C35.4149 29.3748 35.1981 29.7602 35.1318 30.1819L35.0867 30.4272L34.3287 35.23L34.2942 35.4064C34.2852 35.4623 34.2697 35.4902 34.2468 35.5091C34.2262 35.5261 34.1967 35.5376 34.1679 35.5376H30.4707Z" fill="#253B80"/>
<path d="M43.4151 17.9128C43.3922 18.0596 43.366 18.2097 43.3365 18.3639C42.3216 23.5737 38.8502 25.3735 34.4163 25.3735H32.1589C31.6167 25.3735 31.1598 25.7672 31.0752 26.3021L29.9194 33.6325L29.5921 35.7102C29.5371 36.0613 29.8079 36.378 30.1621 36.378H34.1662C34.6404 36.378 35.043 36.0335 35.1176 35.5659L35.1571 35.3624L35.911 30.5783L35.9594 30.316C36.0331 29.8468 36.4367 29.5022 36.9108 29.5022H37.5097C41.3889 29.5022 44.4258 27.9272 45.3134 23.3695C45.6842 21.4655 45.4922 19.8758 44.511 18.7577C44.2142 18.4205 43.8458 18.1408 43.4151 17.9128Z" fill="#179BD7"/>
<path d="M42.3517 17.4882C42.1968 17.4431 42.0367 17.4021 41.8726 17.3652C41.7078 17.3291 41.5387 17.2971 41.3649 17.2692C40.7562 17.1708 40.0893 17.124 39.3748 17.124H33.3439C33.1954 17.124 33.0544 17.1576 32.9281 17.2184C32.6499 17.3521 32.4433 17.6154 32.3932 17.9378L31.1101 26.0638L31.0732 26.3008C31.1578 25.766 31.6147 25.3722 32.1569 25.3722H34.4143C38.8482 25.3722 42.3198 23.5717 43.3345 18.3627C43.3647 18.2085 43.3902 18.0584 43.4131 17.9115C43.1565 17.7754 42.8783 17.6589 42.5789 17.5596C42.5052 17.535 42.4289 17.5112 42.3517 17.4882Z" fill="#222D65"/>
<path d="M32.3971 17.9383C32.4472 17.6159 32.654 17.3526 32.9319 17.2197C33.0592 17.159 33.1995 17.1254 33.3478 17.1254H39.3789C40.0934 17.1254 40.7603 17.1721 41.3688 17.2706C41.5428 17.2985 41.7119 17.3305 41.8767 17.3665C42.0408 17.4035 42.2007 17.4445 42.3558 17.4896C42.4328 17.5126 42.5091 17.5363 42.5837 17.5601C42.8831 17.6594 43.1613 17.7767 43.418 17.9121C43.72 15.9868 43.4156 14.6759 42.3747 13.4889C41.2271 12.1822 39.1557 11.6227 36.5054 11.6227H28.8107C28.2692 11.6227 27.8076 12.0165 27.7238 12.5521L24.519 32.8671C24.4557 33.269 24.7657 33.6317 25.1709 33.6317H29.9215L31.1142 26.0643L32.3971 17.9383Z" fill="#253B80"/>
</svg>
