<svg width="17" height="21" viewBox="0 0 17 21" fill="none" xmlns="http://www.w3.org/2000/svg">
<path fill-rule="evenodd" clip-rule="evenodd" d="M2.96333 3.25C0.937112 3.25 -0.219491 5.56321 0.996236 7.18418C1.51511 7.87601 1.7956 8.71748 1.7956 9.58228V16C1.7956 18.6234 3.92225 20.75 6.5456 20.75H10.5456C13.169 20.75 15.2956 18.6234 15.2956 16V9.58228C15.2956 8.71748 15.5761 7.87601 16.095 7.18418C17.3107 5.56321 16.1541 3.25 14.1279 3.25H2.96333ZM10.5454 8.25C10.9596 8.25 11.2954 8.58579 11.2954 9V15C11.2954 15.4142 10.9596 15.75 10.5454 15.75C10.1312 15.75 9.79541 15.4142 9.79541 15V9C9.79541 8.58579 10.1312 8.25 10.5454 8.25ZM7.29541 9C7.29541 8.58579 6.95962 8.25 6.54541 8.25C6.1312 8.25 5.79541 8.58579 5.79541 9L5.79541 15C5.79541 15.4142 6.1312 15.75 6.54541 15.75C6.95962 15.75 7.29541 15.4142 7.29541 15L7.29541 9Z" fill="#02442F"/>
<path d="M12.5459 4L12.0017 2.36754C11.7295 1.55086 10.9652 1 10.1044 1H6.98742C6.12656 1 5.36228 1.55086 5.09005 2.36754L4.5459 4" stroke="#02442F" stroke-width="1.5" stroke-linecap="round"/>
</svg>
