<svg width="16" height="11" viewBox="0 0 16 11" fill="none" xmlns="http://www.w3.org/2000/svg">
<path d="M15.3469 1.65945L6.34692 10.6595C6.26854 10.7381 6.17539 10.8005 6.07283 10.8431C5.97027 10.8857 5.86032 10.9076 5.74927 10.9076C5.63822 10.9076 5.52826 10.8857 5.4257 10.8431C5.32314 10.8005 5.23 10.7381 5.15161 10.6595L1.21411 6.72195C1.13562 6.64347 1.07337 6.55029 1.03089 6.44774C0.988415 6.3452 0.966553 6.23529 0.966553 6.1243C0.966553 6.0133 0.988415 5.90339 1.03089 5.80085C1.07337 5.6983 1.13562 5.60512 1.21411 5.52664C1.2926 5.44815 1.38577 5.3859 1.48832 5.34342C1.59086 5.30094 1.70077 5.27908 1.81177 5.27908C1.92276 5.27908 2.03267 5.30094 2.13522 5.34342C2.23776 5.3859 2.33094 5.44815 2.40942 5.52664L5.74997 8.86719L14.153 0.465544C14.3115 0.307036 14.5265 0.217987 14.7507 0.217987C14.9748 0.217987 15.1898 0.307036 15.3483 0.465544C15.5068 0.624053 15.5959 0.839036 15.5959 1.0632C15.5959 1.28737 15.5068 1.50235 15.3483 1.66086L15.3469 1.65945Z" fill="#EF5024"/>
</svg>
