<svg width="375" height="263" viewBox="0 0 375 263" fill="none" xmlns="http://www.w3.org/2000/svg">
<rect width="252.78" height="71.7267" rx="20" transform="matrix(0.996157 -0.0875907 0.0867229 0.996232 56.4841 22.1411)" fill="#067332"/>
<path d="M137.263 63.9296L140.171 63.6738L138.125 40.1628L135.216 40.4185L135.029 38.2667L145.588 37.3382L145.775 39.4901L142.866 39.7458L144.896 63.0577L153.981 62.2588L153.53 57.0784L157.156 56.7596L157.811 64.2911L137.45 66.0815L137.263 63.9296ZM170.895 61.2534C172.569 61.1063 173.745 60.4808 174.426 59.377C175.132 58.2708 175.411 56.8543 175.26 55.1275L174.775 49.5486C174.624 47.8218 174.106 46.4754 173.218 45.5094C172.358 44.5411 171.091 44.1305 169.417 44.2776C167.744 44.4248 166.554 45.0514 165.847 46.1576C165.167 47.2614 164.902 48.6767 165.052 50.4035L165.538 55.9824C165.688 57.7092 166.193 59.0568 167.054 60.0251C167.941 60.9912 169.221 61.4006 170.895 61.2534ZM171.1 63.6045C169.639 63.733 168.288 63.5974 167.049 63.1978C165.81 62.7981 164.725 62.1708 163.794 61.3157C162.863 60.4606 162.1 59.3899 161.507 58.1037C160.937 56.7885 160.579 55.2941 160.434 53.6204C160.288 51.9467 160.383 50.4259 160.719 49.0579C161.079 47.661 161.644 46.4602 162.413 45.4557C163.182 44.4511 164.142 43.6439 165.294 43.034C166.445 42.4242 167.752 42.055 169.213 41.9265C170.674 41.7981 172.024 41.9336 173.263 42.3333C174.502 42.7329 175.588 43.3603 176.519 44.2154C177.45 45.0705 178.2 46.1556 178.769 47.4707C179.363 48.757 179.733 50.237 179.879 51.9106C180.024 53.5843 179.917 55.1196 179.557 56.5165C179.221 57.8845 178.668 59.0708 177.899 60.0754C177.13 61.08 176.17 61.8872 175.018 62.497C173.867 63.1069 172.561 63.4761 171.1 63.6045ZM194.291 61.5653C192.724 61.7031 191.306 61.5601 190.038 61.1362C188.797 60.71 187.722 60.0549 186.816 59.1709C185.909 58.287 185.185 57.1995 184.645 55.9086C184.104 54.6176 183.764 53.1752 183.625 51.5812C183.477 49.881 183.598 48.3445 183.987 46.9718C184.374 45.5726 184.978 44.3683 185.801 43.3591C186.623 42.3498 187.624 41.5524 188.804 40.9668C190.009 40.3522 191.342 39.9807 192.803 39.8523C195.087 39.6514 196.909 39.9731 198.267 40.8174C199.652 41.6593 200.409 42.8241 200.539 44.3118C200.62 45.2416 200.431 45.9944 199.972 46.5701C199.512 47.1192 198.856 47.4312 198.006 47.5059C197.13 47.583 196.445 47.4023 195.951 46.9638C195.456 46.4988 195.176 45.8943 195.111 45.1505C195.058 44.5394 195.171 43.9941 195.45 43.5144C195.73 43.0348 196.113 42.6665 196.599 42.4096L196.582 42.2103C196.251 42.1055 195.842 42.021 195.355 41.9568C194.865 41.866 194.262 41.8522 193.545 41.9152C192.668 41.9923 191.885 42.2218 191.195 42.6036C190.506 42.9855 189.934 43.4908 189.48 44.1197C189.024 44.7219 188.685 45.4344 188.462 46.2571C188.266 47.0774 188.21 47.9791 188.296 48.962L188.598 52.4289C188.771 54.4214 189.4 55.9589 190.485 57.0414C191.567 58.0973 192.958 58.5505 194.658 58.401C196.252 58.2609 197.457 57.8069 198.274 57.0391C199.117 56.269 199.734 55.3581 200.124 54.3066L201.928 55.192C201.749 55.9037 201.462 56.6115 201.068 57.3154C200.675 58.0193 200.17 58.6793 199.554 59.2956C198.937 59.8853 198.191 60.3926 197.318 60.8173C196.443 61.2156 195.434 61.4649 194.291 61.5653ZM211.524 60.0501C209.452 60.2322 207.841 59.8653 206.691 58.9492C205.564 58.0042 204.924 56.6418 204.769 54.8618C204.593 52.8428 205.177 51.2522 206.522 50.09C207.866 48.9277 210.159 48.2042 213.399 47.9192L216.268 47.6669L216.032 44.9572C215.891 43.3366 215.425 42.1329 214.634 41.3458C213.843 40.5587 212.677 40.233 211.136 40.3684C209.834 40.4829 208.868 40.7553 208.236 41.1856L208.25 41.345C208.554 41.4521 208.84 41.6679 209.109 41.9922C209.403 42.2876 209.575 42.7276 209.626 43.312C209.69 44.0559 209.517 44.6735 209.104 45.1648C208.719 45.6538 208.114 45.9345 207.291 46.0069C206.6 46.0677 205.996 45.8932 205.478 45.4837C204.985 45.0452 204.704 44.4274 204.634 43.6304C204.581 43.0194 204.703 42.4198 205 41.8315C205.321 41.2144 205.807 40.6496 206.458 40.1373C207.11 39.6249 207.915 39.1927 208.875 38.8406C209.861 38.4862 211.005 38.2517 212.307 38.1373C214.804 37.9177 216.741 38.3364 218.118 39.3931C219.495 40.4499 220.274 42.0277 220.457 44.1264L221.539 56.5594L224.249 56.3212L224.405 58.1144C224.052 58.3596 223.59 58.5876 223.019 58.7984C222.449 59.0092 221.831 59.1438 221.167 59.2022C219.945 59.3096 219.015 59.0835 218.378 58.5239C217.764 57.9354 217.415 57.1496 217.329 56.1667L217.312 55.9674L217.113 55.9849C216.966 56.4529 216.765 56.9123 216.51 57.363C216.253 57.7872 215.9 58.193 215.452 58.5804C215.03 58.9655 214.495 59.2802 213.848 59.5245C213.202 59.7955 212.428 59.9706 211.524 60.0501ZM213.035 57.1064C214.204 57.0037 215.136 56.6406 215.831 56.0173C216.553 55.3917 216.858 54.4413 216.747 53.1661L216.438 49.6196L214.048 49.8298C212.161 49.9956 210.873 50.4167 210.183 51.0932C209.492 51.7696 209.196 52.679 209.296 53.8213L209.362 54.5785C209.445 55.5348 209.813 56.2253 210.465 56.6497C211.116 57.0476 211.972 57.1999 213.035 57.1064ZM226.705 56.065L229.415 55.8268L227.285 31.3593L224.53 31.0795L224.378 29.3261L231.429 27.3008L233.878 55.4344L236.587 55.1961L236.775 57.348L226.893 58.2169L226.705 56.065Z" fill="#FDB90A"/>
<g clip-path="url(#clip0_1_246)">
<rect width="373.741" height="71.7225" rx="20" transform="matrix(0.990171 0.139859 -0.13849 0.990364 7.93286 67.7444)" fill="#FDB90A"/>
<path d="M86.542 130.699C84.9049 130.467 83.6102 130.002 82.658 129.302C81.7322 128.605 81.138 127.848 80.8754 127.03L80.6774 127.002L80.3505 129.339L76.7463 128.83L77.8819 120.709L81.4862 121.218L81.2369 123.001C81.0448 124.374 81.3441 125.507 82.1348 126.4C82.9519 127.296 84.3638 127.886 86.3705 128.17C88.4829 128.468 90.0753 128.249 91.1477 127.511C92.2202 126.774 92.8579 125.679 93.0611 124.227C93.242 122.933 93.024 121.892 92.4071 121.105C91.7939 120.291 90.6719 119.553 89.0411 118.892L87.0876 118.131C85.8344 117.658 84.7262 117.111 83.7629 116.49C82.7996 115.869 82.0095 115.165 81.3926 114.378C80.7757 113.591 80.3338 112.707 80.067 111.727C79.8266 110.75 79.7932 109.641 79.9668 108.4C80.1256 107.264 80.4808 106.264 81.0326 105.399C81.588 104.508 82.2947 103.787 83.1528 103.235C84.0409 102.66 85.0654 102.266 86.2261 102.053C87.3868 101.84 88.6668 101.832 90.0663 102.03C91.6505 102.254 92.881 102.697 93.7577 103.359C94.6344 104.022 95.2078 104.735 95.4777 105.501L95.6757 105.529L95.9804 103.35L99.5846 103.859L98.4823 111.742L94.878 111.233L95.1273 109.451C95.3157 108.104 94.9958 107.022 94.1676 106.204C93.3696 105.365 91.9936 104.807 90.0397 104.531C88.2177 104.273 86.8007 104.491 85.7884 105.182C84.8063 105.852 84.2284 106.807 84.0549 108.048C83.8702 109.369 84.1241 110.441 84.8165 111.266C85.5353 112.095 86.7875 112.864 88.5731 113.574L90.3792 114.234C92.8555 115.203 94.701 116.446 95.9158 117.965C97.1343 119.456 97.5847 121.338 97.2671 123.609C97.0973 124.824 96.7159 125.915 96.123 126.881C95.5565 127.851 94.8104 128.662 93.8847 129.312C92.9892 129.94 91.9178 130.381 90.6705 130.635C89.4232 130.89 88.047 130.911 86.542 130.699ZM109.136 133.89C106.628 133.536 104.934 132.65 104.055 131.233C103.18 129.79 102.922 127.788 103.28 125.226L104.709 115.005L102.088 114.11L102.332 112.367L109.655 111.987L107.749 125.615C107.509 127.331 107.664 128.632 108.213 129.518C108.762 130.403 109.75 130.947 111.176 131.148C111.704 131.223 112.228 131.23 112.748 131.168C113.298 131.085 113.792 130.925 114.229 130.691C114.695 130.434 115.079 130.097 115.379 129.682C115.706 129.27 115.914 128.747 116.003 128.114L117.581 116.823L114.96 115.928L115.204 114.185L122.527 113.805L120.023 131.711L122.644 132.607L122.401 134.35L115.196 134.746L115.711 131.062L115.513 131.034C115.292 131.46 114.979 131.874 114.573 132.274C114.193 132.679 113.728 133.017 113.179 133.289C112.655 133.566 112.049 133.763 111.359 133.881C110.696 134.003 109.955 134.006 109.136 133.89ZM133.608 137.347C132.261 137.156 131.202 136.738 130.431 136.09C129.66 135.442 129.187 134.783 129.012 134.112L128.853 134.09L128.565 136.15L125.555 135.724L126.414 129.584L129.424 130.009L129.324 130.722C129.169 131.832 129.39 132.752 129.988 133.482C130.586 134.213 131.651 134.687 133.182 134.903C136.034 135.306 137.6 134.504 137.881 132.497C138.099 130.938 137.213 129.763 135.224 128.97L133.157 128.153C131.115 127.353 129.651 126.365 128.765 125.19C127.879 124.014 127.562 122.529 127.813 120.733C128.082 118.805 128.938 117.404 130.38 116.531C131.821 115.657 133.611 115.371 135.75 115.673C137.07 115.86 138.095 116.233 138.824 116.794C139.554 117.355 139.993 117.969 140.142 118.637L140.3 118.659L140.555 116.837L143.565 117.262L142.707 123.402L139.697 122.977L139.857 121.828C140.149 119.742 138.882 118.499 136.057 118.1C134.842 117.928 133.872 118.034 133.145 118.416C132.449 118.775 132.036 119.417 131.907 120.342C131.678 121.979 132.582 123.211 134.621 124.037L136.574 124.798C138.647 125.576 140.143 126.528 141.062 127.654C141.985 128.754 142.316 130.241 142.054 132.116C141.788 134.018 140.887 135.453 139.351 136.421C137.846 137.366 135.931 137.675 133.608 137.347ZM150.948 139.634C149.442 139.422 148.431 138.956 147.912 138.236C147.393 137.516 147.23 136.47 147.422 135.097L149.472 120.439L146.778 120.059L147.1 117.761L147.773 117.856C148.75 117.994 149.447 117.918 149.865 117.626C150.283 117.335 150.656 116.876 150.986 116.25L152.702 112.937L154.999 113.262L154.229 118.768L159.18 119.467L158.858 121.765L153.908 121.066L151.664 137.11L156.615 137.809L156.371 139.552C155.893 139.7 155.141 139.782 154.115 139.799C153.112 139.846 152.057 139.791 150.948 139.634ZM164.959 141.775C162.9 141.484 161.412 140.762 160.496 139.609C159.61 138.434 159.291 136.962 159.539 135.192C159.819 133.185 160.745 131.767 162.314 130.938C163.884 130.11 166.28 129.923 169.501 130.378L172.353 130.781L172.73 128.087C172.955 126.476 172.77 125.198 172.175 124.252C171.581 123.306 170.518 122.725 168.986 122.509C167.692 122.326 166.69 122.373 165.978 122.649L165.956 122.808C166.228 122.981 166.458 123.256 166.648 123.633C166.868 123.987 166.937 124.455 166.856 125.036C166.752 125.775 166.445 126.338 165.933 126.723C165.448 127.112 164.796 127.249 163.977 127.134C163.291 127.037 162.741 126.73 162.329 126.214C161.946 125.675 161.811 125.01 161.921 124.217C162.006 123.61 162.259 123.053 162.68 122.547C163.131 122.018 163.731 121.578 164.48 121.226C165.23 120.874 166.111 120.635 167.125 120.509C168.166 120.386 169.333 120.417 170.626 120.599C173.108 120.95 174.902 121.796 176.007 123.137C177.112 124.478 177.518 126.192 177.227 128.278L175.498 140.638L178.191 141.018L177.942 142.801C177.543 142.96 177.042 143.078 176.439 143.154C175.836 143.23 175.204 143.222 174.544 143.129C173.329 142.957 172.474 142.527 171.978 141.837C171.512 141.125 171.348 140.28 171.484 139.303L171.512 139.105L171.314 139.077C171.066 139.5 170.768 139.902 170.418 140.284C170.072 140.639 169.638 140.955 169.115 141.231C168.618 141.511 168.026 141.696 167.34 141.788C166.651 141.906 165.857 141.902 164.959 141.775ZM167.09 139.248C168.251 139.412 169.241 139.269 170.058 138.819C170.901 138.372 171.411 137.515 171.589 136.248L172.082 132.722L169.705 132.386C167.83 132.122 166.481 132.241 165.657 132.744C164.832 133.247 164.341 134.066 164.182 135.202L164.077 135.954C163.944 136.905 164.148 137.661 164.689 138.222C165.233 138.757 166.033 139.099 167.09 139.248ZM189.187 119.787C188.342 119.668 187.715 119.337 187.306 118.795C186.901 118.226 186.752 117.558 186.859 116.792L186.893 116.555C187 115.789 187.324 115.202 187.866 114.793C188.411 114.359 189.107 114.201 189.952 114.32C190.796 114.44 191.422 114.784 191.827 115.353C192.235 115.895 192.386 116.55 192.279 117.315L192.246 117.553C192.139 118.319 191.813 118.919 191.267 119.354C190.725 119.762 190.032 119.907 189.187 119.787ZM181.157 141.397L183.85 141.777L185.989 126.486L183.367 125.59L183.611 123.847L190.934 123.468L188.286 142.404L190.98 142.784L190.68 144.923L180.858 143.536L181.157 141.397ZM193.96 143.205L196.653 143.585L198.791 128.294L196.17 127.399L196.414 125.656L203.618 125.259L203.103 128.944L203.301 128.972C203.522 128.545 203.822 128.13 204.202 127.725C204.608 127.325 205.073 126.986 205.596 126.71C206.146 126.438 206.752 126.241 207.416 126.119C208.105 126.001 208.859 126 209.678 126.115C212.186 126.47 213.878 127.368 214.753 128.812C215.632 130.229 215.893 132.218 215.534 134.78L213.961 146.03L216.654 146.411L216.355 148.55L206.612 147.173L206.911 145.034L209.525 145.404L211.065 134.391C211.305 132.674 211.151 131.373 210.601 130.487C210.052 129.602 209.064 129.058 207.638 128.857C207.11 128.782 206.571 128.787 206.021 128.871C205.501 128.932 205.007 129.091 204.541 129.349C204.104 129.583 203.722 129.906 203.395 130.318C203.095 130.733 202.9 131.258 202.812 131.892L201.089 144.212L203.703 144.581L203.404 146.72L193.661 145.344L193.96 143.205ZM225.336 150.303C223.277 150.012 221.789 149.29 220.873 148.138C219.988 146.962 219.668 145.49 219.916 143.72C220.197 141.713 221.122 140.295 222.692 139.467C224.262 138.638 226.657 138.451 229.879 138.906L232.73 139.309L233.107 136.615C233.332 135.004 233.147 133.726 232.553 132.78C231.958 131.834 230.895 131.253 229.363 131.037C228.07 130.854 227.067 130.901 226.355 131.178L226.333 131.336C226.605 131.509 226.836 131.784 227.025 132.161C227.245 132.515 227.314 132.983 227.233 133.564C227.13 134.303 226.822 134.866 226.31 135.251C225.825 135.641 225.173 135.777 224.355 135.662C223.668 135.565 223.119 135.258 222.706 134.742C222.324 134.203 222.188 133.538 222.299 132.746C222.384 132.138 222.637 131.581 223.057 131.075C223.508 130.547 224.108 130.106 224.858 129.754C225.607 129.402 226.489 129.163 227.502 129.037C228.543 128.915 229.71 128.945 231.004 129.128C233.486 129.478 235.279 130.324 236.384 131.665C237.489 133.006 237.896 134.72 237.604 136.806L235.875 149.166L238.569 149.546L238.319 151.329C237.92 151.488 237.419 151.606 236.816 151.682C236.213 151.759 235.581 151.75 234.921 151.657C233.707 151.485 232.851 151.055 232.355 150.365C231.89 149.653 231.725 148.809 231.862 147.831L231.889 147.633L231.691 147.605C231.444 148.028 231.145 148.43 230.796 148.812C230.45 149.167 230.015 149.483 229.492 149.759C228.995 150.039 228.404 150.225 227.718 150.316C227.028 150.434 226.234 150.43 225.336 150.303ZM227.467 147.776C228.629 147.94 229.618 147.797 230.435 147.347C231.278 146.901 231.789 146.044 231.966 144.776L232.459 141.25L230.082 140.915C228.208 140.65 226.858 140.769 226.034 141.272C225.21 141.775 224.718 142.594 224.559 143.73L224.454 144.482C224.321 145.433 224.525 146.189 225.066 146.75C225.61 147.285 226.411 147.627 227.467 147.776ZM253.175 154.235C251.538 154.004 250.268 153.461 249.364 152.606C248.487 151.755 247.903 150.824 247.614 149.814L247.416 149.786L244.766 152.563L242.825 152.288L246.525 125.826L243.904 124.931L244.148 123.188L251.471 122.808L249.709 135.405L249.907 135.433C250.463 134.542 251.266 133.807 252.316 133.229C253.366 132.65 254.657 132.469 256.189 132.685C257.456 132.864 258.57 133.277 259.529 133.924C260.493 134.545 261.266 135.368 261.85 136.393C262.433 137.418 262.829 138.632 263.037 140.035C263.248 141.411 263.236 142.945 262.999 144.635C262.763 146.325 262.353 147.816 261.768 149.107C261.187 150.371 260.476 151.415 259.634 152.239C258.792 153.063 257.821 153.652 256.721 154.009C255.624 154.339 254.443 154.414 253.175 154.235ZM252.188 151.187C253.693 151.4 254.966 151.054 256.008 150.151C257.05 149.248 257.698 147.885 257.953 146.063L258.54 141.864C258.795 140.042 258.545 138.552 257.792 137.395C257.038 136.239 255.909 135.554 254.404 135.341C253.796 135.256 253.202 135.266 252.622 135.372C252.072 135.456 251.548 135.638 251.051 135.918C250.581 136.202 250.18 136.563 249.85 137.001C249.546 137.443 249.351 137.967 249.266 138.575L248.136 146.656C248.051 147.263 248.094 147.822 248.266 148.33C248.463 148.843 248.749 149.301 249.124 149.704C249.524 150.111 249.976 150.444 250.478 150.703C251.011 150.94 251.58 151.101 252.188 151.187ZM264.923 153.228L267.616 153.609L271.017 129.285L268.396 128.39L268.64 126.647L275.963 126.267L272.052 154.235L274.745 154.616L274.446 156.755L264.624 155.367L264.923 153.228ZM286.878 158.996C285.347 158.779 284.022 158.336 282.904 157.667C281.79 156.971 280.89 156.09 280.204 155.023C279.519 153.957 279.044 152.732 278.78 151.348C278.542 149.968 278.535 148.472 278.761 146.861C278.99 145.224 279.421 143.776 280.054 142.519C280.714 141.266 281.518 140.235 282.466 139.426C283.444 138.595 284.536 138.008 285.741 137.667C286.977 137.303 288.281 137.218 289.654 137.412C291.054 137.609 292.275 138.024 293.317 138.656C294.363 139.262 295.21 140.041 295.858 140.995C296.532 141.952 296.997 143.054 297.253 144.302C297.51 145.55 297.536 146.901 297.333 148.353L297.183 149.423L283.559 147.498L283.381 148.766C283.093 150.826 283.385 152.497 284.256 153.778C285.13 155.032 286.439 155.783 288.182 156.029C289.713 156.245 290.987 156.088 292.004 155.559C293.05 155.006 293.868 154.26 294.457 153.32L296.017 154.59C295.683 155.244 295.232 155.867 294.665 156.46C294.123 157.057 293.473 157.571 292.712 158.002C291.952 158.433 291.086 158.755 290.113 158.968C289.145 159.154 288.067 159.164 286.878 158.996ZM283.852 145.399L292.883 146.674L292.944 146.239C293.209 144.337 293.045 142.819 292.449 141.685C291.884 140.528 290.849 139.843 289.344 139.63C287.865 139.421 286.658 139.776 285.722 140.694C284.789 141.586 284.19 142.982 283.924 144.884L283.852 145.399Z" fill="#EF5024"/>
</g>
<rect width="259.724" height="71.7255" rx="20" transform="matrix(0.994467 -0.105048 0.104011 0.994576 61.4404 191.664)" fill="#EF5024"/>
<path d="M142.903 232.032L145.807 231.725L143.352 208.253L140.448 208.56L140.224 206.412L161.465 204.168L162.198 211.17L158.578 211.552L158.091 206.898L148.106 207.952L149.201 218.415L155.963 217.701L155.668 214.876L158.293 214.599L159.129 222.595L156.504 222.873L156.209 220.048L149.446 220.762L150.54 231.225L154.24 230.835L154.464 232.983L143.128 234.18L142.903 232.032ZM166.828 229.505L169.532 229.219L167.927 213.863L165.168 213.631L164.984 211.881L171.88 209.745L172.267 213.445L172.465 213.424C172.601 212.927 172.779 212.452 173 212C173.245 211.518 173.548 211.084 173.91 210.697C174.298 210.307 174.746 209.978 175.254 209.71C175.789 209.439 176.401 209.267 177.091 209.194C178.311 209.066 179.31 209.268 180.09 209.803C180.897 210.334 181.359 211.17 181.479 212.311C181.573 213.212 181.409 213.954 180.987 214.535C180.589 215.086 179.992 215.404 179.197 215.488C178.375 215.575 177.703 215.431 177.181 215.057C176.683 214.654 176.399 214.121 176.33 213.458C176.283 213.007 176.337 212.626 176.492 212.315C176.644 211.977 176.85 211.767 177.11 211.686L177.097 211.567C177.015 211.549 176.921 211.545 176.815 211.556C176.706 211.541 176.546 211.545 176.333 211.567C175.83 211.62 175.34 211.806 174.863 212.125C174.414 212.44 174.012 212.831 173.659 213.298C173.329 213.735 173.073 214.231 172.89 214.787C172.704 215.316 172.637 215.832 172.69 216.336L173.988 228.749L177.488 228.379L177.713 230.527L167.052 231.653L166.828 229.505ZM195.141 229.169C193.603 229.331 192.211 229.224 190.965 228.846C189.716 228.441 188.63 227.805 187.708 226.937C186.786 226.069 186.031 224.996 185.441 223.718C184.878 222.436 184.512 220.987 184.343 219.369C184.171 217.725 184.241 216.215 184.553 214.842C184.892 213.465 185.424 212.269 186.149 211.254C186.898 210.21 187.816 209.375 188.903 208.751C190.015 208.097 191.26 207.698 192.639 207.552C194.044 207.404 195.329 207.509 196.493 207.869C197.654 208.202 198.663 208.753 199.521 209.52C200.405 210.285 201.122 211.241 201.671 212.39C202.22 213.539 202.571 214.842 202.724 216.301L202.836 217.375L189.152 218.821L189.285 220.094C189.502 222.162 190.186 223.712 191.34 224.744C192.491 225.748 193.941 226.158 195.691 225.973C197.23 225.811 198.428 225.349 199.287 224.588C200.169 223.798 200.783 222.875 201.129 221.819L202.948 222.673C202.781 223.388 202.494 224.102 202.086 224.815C201.704 225.526 201.196 226.183 200.562 226.786C199.928 227.389 199.165 227.912 198.273 228.355C197.378 228.772 196.334 229.043 195.141 229.169ZM188.932 216.712L198.001 215.754L197.955 215.317C197.756 213.407 197.23 211.974 196.38 211.018C195.553 210.033 194.383 209.62 192.872 209.78C191.387 209.937 190.301 210.574 189.613 211.693C188.923 212.785 188.678 214.285 188.877 216.195L188.932 216.712ZM215.781 226.989C214.429 227.131 213.3 226.982 212.396 226.542C211.492 226.101 210.874 225.576 210.542 224.968L210.383 224.984L210.6 227.053L207.576 227.373L206.932 221.206L209.955 220.887L210.03 221.603C210.146 222.717 210.582 223.556 211.338 224.119C212.095 224.683 213.242 224.884 214.78 224.721C217.644 224.419 218.97 223.26 218.76 221.244C218.596 219.679 217.454 218.754 215.332 218.469L213.13 218.178C210.956 217.898 209.298 217.296 208.155 216.371C207.013 215.446 206.347 214.081 206.159 212.278C205.956 210.342 206.449 208.775 207.638 207.577C208.826 206.378 210.495 205.666 212.643 205.439C213.969 205.299 215.053 205.412 215.896 205.779C216.738 206.146 217.312 206.635 217.618 207.246L217.777 207.23L217.585 205.4L220.608 205.08L221.253 211.247L218.23 211.566L218.11 210.412C217.89 208.317 216.362 207.419 213.525 207.719C212.305 207.848 211.388 208.186 210.775 208.733C210.186 209.251 209.94 209.975 210.037 210.903C210.209 212.547 211.383 213.523 213.56 213.829L215.639 214.092C217.837 214.343 219.518 214.902 220.681 215.772C221.842 216.614 222.52 217.977 222.717 219.86C222.917 221.77 222.388 223.381 221.131 224.694C219.898 225.977 218.115 226.742 215.781 226.989ZM226.289 223.224L228.994 222.938L226.44 198.511L223.681 198.28L223.498 196.529L230.512 194.381L231.848 207.151L232.047 207.13C232.158 206.662 232.35 206.186 232.621 205.702C232.919 205.214 233.288 204.773 233.729 204.378C234.171 203.983 234.698 203.645 235.313 203.366C235.927 203.087 236.632 202.905 237.427 202.821C239.947 202.555 241.805 203.015 243.001 204.203C244.195 205.364 244.927 207.231 245.196 209.803L246.377 221.102L249.082 220.816L249.307 222.964L239.522 223.998L239.297 221.85L241.922 221.572L240.766 210.513C240.585 208.789 240.122 207.564 239.376 206.838C238.63 206.113 237.541 205.826 236.109 205.977C235.578 206.033 235.056 206.169 234.542 206.384C234.052 206.57 233.612 206.844 233.221 207.207C232.854 207.541 232.561 207.947 232.343 208.426C232.151 208.902 232.089 209.458 232.155 210.095L233.449 222.467L236.075 222.19L236.299 224.338L226.514 225.372L226.289 223.224Z" fill="#FDB90A"/>
<defs>
<clipPath id="clip0_1_246">
<rect width="373.741" height="71.7225" rx="20" transform="matrix(0.990171 0.139859 -0.13849 0.990364 7.93286 67.7444)" fill="white"/>
</clipPath>
</defs>
</svg>
