<svg width="739" height="186" viewBox="0 0 739 186" fill="none" xmlns="http://www.w3.org/2000/svg">
<rect x="0.765625" y="23.2084" width="255" height="72" rx="20" transform="rotate(-5 0.765625 23.2084)" fill="#067332"/>
<path d="M82.6856 65.0679L85.5945 64.8134L83.5377 41.3032L80.6288 41.5577L80.4405 39.4059L91.0002 38.4821L91.1884 40.6338L88.2795 40.8883L90.319 64.1993L99.4043 63.4044L98.9511 58.2242L102.577 57.907L103.236 65.4382L82.8739 67.2197L82.6856 65.0679ZM116.319 62.4064C117.993 62.26 119.17 61.635 119.85 60.5316C120.556 59.4258 120.833 58.0096 120.682 56.2828L120.194 50.7041C120.043 48.9774 119.524 47.6309 118.636 46.6646C117.775 45.6959 116.508 45.2848 114.834 45.4312C113.161 45.5776 111.971 46.2037 111.264 47.3095C110.585 48.4129 110.32 49.828 110.471 51.5548L110.96 57.1335C111.111 58.8602 111.617 60.2079 112.478 61.1765C113.365 62.1429 114.646 62.5528 116.319 62.4064ZM116.525 64.7574C115.064 64.8852 113.714 64.7491 112.474 64.3489C111.235 63.9488 110.149 63.321 109.218 62.4656C108.286 61.6102 107.523 60.5392 106.929 59.2528C106.359 57.9375 106 56.443 105.854 54.7694C105.708 53.0958 105.802 51.5751 106.138 50.2074C106.497 48.8107 107.061 47.6103 107.83 46.6062C108.599 45.602 109.559 44.7953 110.71 44.1859C111.861 43.5766 113.168 43.208 114.629 43.0802C116.09 42.9524 117.44 43.0885 118.68 43.4887C119.919 43.8888 121.005 44.5166 121.936 45.372C122.868 46.2274 123.618 47.3128 124.189 48.6281C124.783 49.9145 125.153 51.3946 125.3 53.0682C125.446 54.7418 125.34 56.2769 124.98 57.6736C124.645 59.0413 124.092 60.2273 123.324 61.2314C122.555 62.2356 121.595 63.0423 120.444 63.6517C119.292 64.261 117.986 64.6296 116.525 64.7574ZM139.718 62.7283C138.15 62.8654 136.733 62.7218 135.464 62.2974C134.222 61.8707 133.148 61.2152 132.24 60.3309C131.333 59.4466 130.609 58.3589 130.068 57.0678C129.527 55.7768 129.186 54.3343 129.047 52.7403C128.898 51.0402 129.018 49.5039 129.406 48.1315C129.793 46.7325 130.397 45.5286 131.219 44.5198C132.04 43.511 133.041 42.714 134.222 42.1289C135.426 41.515 136.759 41.1441 138.22 41.0162C140.504 40.8164 142.326 41.1388 143.685 41.9836C145.07 42.8261 145.828 43.9911 145.958 45.4788C146.04 46.4086 145.851 47.1612 145.393 47.7367C144.932 48.2855 144.277 48.5972 143.427 48.6716C142.55 48.7483 141.865 48.5673 141.372 48.1286C140.876 47.6634 140.595 47.0589 140.53 46.315C140.477 45.704 140.59 45.1588 140.869 44.6793C141.148 44.1998 141.531 43.8317 142.017 43.575L142 43.3758C141.669 43.2708 141.26 43.1862 140.773 43.1217C140.283 43.0307 139.68 43.0166 138.962 43.0794C138.086 43.1561 137.303 43.3852 136.613 43.7667C135.924 44.1483 135.353 44.6533 134.899 45.2819C134.443 45.8839 134.104 46.5962 133.881 47.4187C133.685 48.2389 133.63 49.1405 133.716 50.1234L134.02 53.5902C134.194 55.5825 134.824 57.1202 135.909 58.2031C136.992 59.2594 138.383 59.7131 140.083 59.5644C141.677 59.4249 142.882 58.9715 143.699 58.2041C144.541 57.4344 145.158 56.5239 145.548 55.4726L147.352 56.3587C147.173 57.0703 146.887 57.778 146.493 58.4816C146.1 59.1852 145.596 59.8451 144.98 60.461C144.363 61.0504 143.617 61.5573 142.744 61.9817C141.869 62.3795 140.86 62.6284 139.718 62.7283ZM156.951 61.2206C154.879 61.4019 153.268 61.0342 152.117 60.1177C150.99 59.1723 150.349 57.8097 150.193 56.0298C150.017 54.0109 150.6 52.4206 151.944 51.2591C153.288 50.0975 155.58 49.375 158.821 49.0914L161.69 48.8404L161.453 46.1308C161.312 44.5103 160.845 43.3064 160.053 42.5191C159.262 41.7317 158.095 41.4055 156.555 41.5403C155.253 41.6541 154.286 41.9261 153.655 42.3561L153.669 42.5155C153.972 42.6228 154.259 42.8386 154.528 43.163C154.822 43.4586 154.994 43.8986 155.045 44.483C155.11 45.2268 154.937 45.8443 154.525 46.3354C154.139 46.8242 153.535 47.1046 152.711 47.1767C152.021 47.2371 151.416 47.0624 150.899 46.6527C150.405 46.214 150.124 45.5962 150.054 44.7992C150 44.1882 150.122 43.5887 150.419 43.0006C150.739 42.3836 151.225 41.8191 151.876 41.3071C152.528 40.7951 153.333 40.3632 154.293 40.0116C155.279 39.6576 156.423 39.4237 157.725 39.3098C160.222 39.0913 162.159 39.5107 163.536 40.568C164.914 41.6254 165.694 43.2033 165.878 45.302L166.966 57.7345L169.675 57.4974L169.832 59.2906C169.479 59.5356 169.017 59.7634 168.446 59.974C167.876 60.1845 167.259 60.3188 166.595 60.3769C165.373 60.4838 164.443 60.2573 163.805 59.6975C163.191 59.1087 162.841 58.3229 162.755 57.34L162.738 57.1407L162.539 57.1582C162.392 57.626 162.191 58.0853 161.936 58.5359C161.679 58.9599 161.326 59.3655 160.878 59.7527C160.457 60.1376 159.922 60.452 159.275 60.6961C158.629 60.9667 157.855 61.1415 156.951 61.2206ZM158.461 58.2778C159.63 58.1756 160.561 57.813 161.256 57.19C161.978 56.5647 162.283 55.6145 162.172 54.3394L161.861 50.793L159.47 51.0021C157.584 51.1672 156.296 51.5877 155.606 52.2638C154.915 52.9398 154.62 53.849 154.72 54.9913L154.786 55.7484C154.87 56.7048 155.238 57.3953 155.891 57.82C156.541 58.2182 157.398 58.3708 158.461 58.2778ZM172.132 57.2424L174.841 57.0053L172.701 32.5388L169.946 32.2578L169.793 30.5045L176.843 28.4823L179.304 56.6148L182.014 56.3778L182.202 58.5296L172.32 59.3941L172.132 57.2424Z" fill="#FDB90A"/>
<g clip-path="url(#clip0_1_26)">
<rect x="208" y="61.4894" width="377" height="72" rx="20" transform="rotate(8 208 61.4894)" fill="#FDB90A"/>
<path d="M288.177 124.743C286.54 124.513 285.245 124.049 284.293 123.349C283.368 122.654 282.774 121.897 282.512 121.079L282.314 121.051L281.985 123.388L278.381 122.882L279.522 114.762L283.127 115.268L282.876 117.051C282.683 118.424 282.982 119.557 283.772 120.449C284.589 121.344 286 121.933 288.007 122.215C290.12 122.512 291.713 122.292 292.786 121.554C293.859 120.816 294.498 119.721 294.702 118.268C294.884 116.974 294.666 115.934 294.05 115.147C293.437 114.334 292.315 113.598 290.685 112.937L288.731 112.178C287.478 111.706 286.37 111.16 285.407 110.54C284.444 109.92 283.654 109.216 283.037 108.429C282.421 107.643 281.98 106.759 281.713 105.779C281.474 104.803 281.441 103.694 281.615 102.453C281.775 101.318 282.131 100.318 282.683 99.4527C283.239 98.5614 283.947 97.8395 284.805 97.2869C285.694 96.7117 286.719 96.3172 287.88 96.1033C289.041 95.8895 290.321 95.8809 291.721 96.0776C293.305 96.3003 294.536 96.7425 295.412 97.4043C296.289 98.066 296.862 98.7794 297.131 99.5443L297.329 99.5722L297.635 97.3936L301.24 97.9002L300.132 105.783L296.528 105.276L296.778 103.494C296.967 102.147 296.648 101.065 295.82 100.249C295.023 99.4096 293.647 98.8527 291.693 98.578C289.871 98.322 288.453 98.5401 287.44 99.2326C286.458 99.9023 285.879 100.858 285.704 102.099C285.519 103.419 285.772 104.492 286.464 105.316C287.183 106.144 288.434 106.912 290.22 107.621L292.026 108.279C294.502 109.246 296.347 110.488 297.561 112.005C298.779 113.496 299.228 115.377 298.909 117.648C298.738 118.863 298.356 119.953 297.762 120.92C297.195 121.891 296.448 122.701 295.522 123.352C294.626 123.98 293.554 124.422 292.306 124.677C291.059 124.933 289.682 124.955 288.177 124.743ZM310.774 127.919C308.265 127.567 306.572 126.682 305.693 125.266C304.819 123.824 304.562 121.822 304.922 119.26L306.358 109.041L303.737 108.147L303.982 106.405L311.307 106.02L309.392 119.646C309.15 121.363 309.304 122.663 309.853 123.548C310.402 124.433 311.389 124.976 312.815 125.177C313.343 125.251 313.868 125.257 314.388 125.196C314.938 125.111 315.432 124.952 315.869 124.717C316.336 124.46 316.72 124.123 317.021 123.708C317.348 123.296 317.556 122.773 317.645 122.139L319.232 110.85L316.61 109.957L316.855 108.214L324.18 107.829L321.664 125.733L324.285 126.627L324.04 128.37L316.834 128.771L317.352 125.087L317.154 125.059C316.932 125.486 316.618 125.9 316.212 126.3C315.832 126.705 315.367 127.043 314.817 127.316C314.293 127.592 313.687 127.79 312.997 127.908C312.333 128.031 311.592 128.034 310.774 127.919ZM335.248 131.359C333.901 131.169 332.842 130.751 332.071 130.104C331.3 129.458 330.828 128.799 330.653 128.128L330.494 128.106L330.205 130.165L327.194 129.742L328.057 123.603L331.067 124.026L330.967 124.739C330.811 125.848 331.032 126.767 331.63 127.498C332.227 128.228 333.292 128.701 334.823 128.916C337.675 129.317 339.242 128.514 339.524 126.507C339.743 124.949 338.858 123.774 336.869 122.983L334.802 122.167C332.76 121.369 331.297 120.382 330.412 119.207C329.527 118.033 329.21 116.548 329.462 114.752C329.733 112.824 330.59 111.423 332.032 110.549C333.475 109.674 335.266 109.387 337.405 109.688C338.725 109.874 339.75 110.246 340.479 110.807C341.208 111.367 341.647 111.981 341.795 112.648L341.954 112.67L342.21 110.848L345.22 111.271L344.357 117.411L341.347 116.988L341.508 115.839C341.802 113.753 340.535 112.511 337.71 112.114C336.495 111.943 335.524 112.049 334.797 112.432C334.1 112.792 333.687 113.434 333.557 114.358C333.327 115.995 334.231 117.226 336.27 118.051L338.223 118.811C340.295 119.587 341.791 120.537 342.71 121.663C343.632 122.762 343.962 124.249 343.698 126.124C343.431 128.025 342.529 129.46 340.993 130.429C339.486 131.375 337.571 131.685 335.248 131.359ZM352.589 133.634C351.084 133.423 350.072 132.957 349.554 132.238C349.035 131.519 348.873 130.473 349.066 129.1L351.126 114.444L348.432 114.065L348.755 111.768L349.428 111.863C350.405 112 351.103 111.923 351.521 111.632C351.939 111.34 352.313 110.881 352.643 110.254L354.361 106.941L356.659 107.264L355.885 112.77L360.836 113.466L360.513 115.763L355.562 115.067L353.307 131.11L358.259 131.806L358.014 133.548C357.535 133.697 356.783 133.779 355.757 133.797C354.754 133.844 353.698 133.79 352.589 133.634ZM366.602 135.765C364.542 135.476 363.055 134.755 362.139 133.603C361.254 132.429 360.936 130.957 361.185 129.187C361.467 127.18 362.393 125.762 363.964 124.933C365.535 124.103 367.931 123.915 371.152 124.368L374.004 124.768L374.383 122.075C374.609 120.464 374.425 119.186 373.831 118.241C373.237 117.296 372.174 116.715 370.642 116.5C369.349 116.318 368.345 116.366 367.633 116.643L367.611 116.801C367.883 116.974 368.114 117.249 368.303 117.626C368.523 117.98 368.592 118.447 368.51 119.028C368.406 119.767 368.098 120.33 367.586 120.716C367.1 121.105 366.448 121.243 365.63 121.128C364.943 121.031 364.394 120.725 363.981 120.209C363.599 119.671 363.464 119.005 363.575 118.213C363.661 117.606 363.914 117.049 364.335 116.543C364.786 116.014 365.387 115.573 366.137 115.221C366.886 114.868 367.768 114.629 368.782 114.502C369.823 114.379 370.99 114.408 372.284 114.59C374.767 114.939 376.56 115.783 377.664 117.123C378.768 118.463 379.174 120.177 378.881 122.263L377.144 134.621L379.837 135L379.587 136.782C379.187 136.942 378.686 137.06 378.083 137.136C377.48 137.213 376.848 137.205 376.188 137.112C374.973 136.942 374.118 136.512 373.622 135.823C373.157 135.111 372.993 134.267 373.13 133.29L373.158 133.092L372.96 133.064C372.712 133.487 372.413 133.889 372.063 134.271C371.717 134.626 371.282 134.942 370.758 135.218C370.261 135.499 369.67 135.685 368.984 135.777C368.294 135.895 367.5 135.891 366.602 135.765ZM368.734 133.237C369.896 133.401 370.886 133.257 371.703 132.806C372.547 132.36 373.058 131.502 373.236 130.235L373.732 126.709L371.355 126.375C369.48 126.112 368.13 126.232 367.306 126.735C366.481 127.239 365.989 128.058 365.829 129.194L365.723 129.946C365.59 130.897 365.793 131.653 366.334 132.213C366.878 132.748 367.678 133.089 368.734 133.237ZM390.849 113.766C390.004 113.647 389.377 113.317 388.969 112.774C388.564 112.206 388.415 111.539 388.523 110.773L388.556 110.535C388.664 109.769 388.989 109.182 389.531 108.774C390.077 108.339 390.772 108.181 391.617 108.299C392.462 108.418 393.087 108.762 393.492 109.33C393.901 109.873 394.051 110.527 393.943 111.292L393.91 111.53C393.802 112.296 393.476 112.896 392.93 113.331C392.388 113.74 391.694 113.884 390.849 113.766ZM382.803 135.376L385.497 135.755L387.645 120.465L385.024 119.572L385.269 117.829L392.594 117.444L389.933 136.378L392.627 136.757L392.326 138.896L382.503 137.515L382.803 135.376ZM395.607 137.176L398.301 137.554L400.449 122.265L397.828 121.371L398.073 119.628L405.279 119.227L404.761 122.911L404.959 122.939C405.181 122.512 405.482 122.097 405.862 121.692C406.268 121.292 406.733 120.953 407.257 120.676C407.807 120.404 408.413 120.206 409.077 120.084C409.767 119.966 410.521 119.964 411.34 120.079C413.848 120.431 415.54 121.329 416.414 122.771C417.292 124.187 417.551 126.176 417.191 128.738L415.61 139.987L418.304 140.366L418.003 142.505L408.259 141.135L408.56 138.996L411.174 139.364L412.722 128.352C412.963 126.635 412.809 125.335 412.26 124.45C411.711 123.565 410.724 123.022 409.298 122.821C408.77 122.747 408.231 122.752 407.68 122.836C407.16 122.898 406.666 123.057 406.199 123.315C405.762 123.55 405.38 123.873 405.053 124.285C404.752 124.7 404.557 125.225 404.468 125.859L402.737 138.178L405.351 138.545L405.051 140.684L395.306 139.315L395.607 137.176ZM426.985 144.252C424.925 143.962 423.438 143.241 422.523 142.089C421.637 140.915 421.319 139.443 421.568 137.674C421.85 135.667 422.776 134.248 424.347 133.419C425.918 132.59 428.314 132.401 431.536 132.854L434.388 133.255L434.766 130.561C434.993 128.95 434.809 127.672 434.214 126.727C433.62 125.782 432.557 125.202 431.026 124.986C429.732 124.805 428.729 124.852 428.016 125.129L427.994 125.287C428.266 125.46 428.497 125.735 428.686 126.112C428.906 126.466 428.975 126.933 428.893 127.514C428.789 128.254 428.481 128.816 427.969 129.202C427.484 129.592 426.831 129.729 426.013 129.614C425.326 129.517 424.777 129.211 424.365 128.695C423.982 128.157 423.847 127.492 423.958 126.7C424.044 126.092 424.297 125.535 424.718 125.029C425.17 124.5 425.77 124.059 426.52 123.707C427.27 123.354 428.151 123.115 429.166 122.988C430.206 122.865 431.373 122.894 432.667 123.076C435.15 123.425 436.943 124.27 438.047 125.61C439.151 126.95 439.557 128.663 439.264 130.749L437.527 143.108L440.22 143.486L439.97 145.269C439.571 145.428 439.069 145.546 438.466 145.623C437.863 145.7 437.231 145.692 436.571 145.599C435.356 145.428 434.501 144.998 434.005 144.309C433.54 143.597 433.376 142.753 433.513 141.776L433.541 141.578L433.343 141.55C433.095 141.973 432.796 142.375 432.446 142.757C432.1 143.112 431.665 143.428 431.142 143.705C430.644 143.985 430.053 144.171 429.367 144.263C428.677 144.382 427.883 144.378 426.985 144.252ZM429.118 141.724C430.28 141.887 431.269 141.743 432.087 141.293C432.93 140.846 433.441 139.989 433.619 138.721L434.115 135.196L431.738 134.862C429.863 134.598 428.513 134.718 427.689 135.222C426.864 135.725 426.372 136.545 426.212 137.68L426.106 138.433C425.973 139.383 426.176 140.139 426.717 140.7C427.261 141.234 428.061 141.575 429.118 141.724ZM454.826 148.164C453.189 147.934 451.919 147.392 451.016 146.538C450.139 145.688 449.556 144.758 449.267 143.748L449.069 143.72L446.417 146.498L444.476 146.225L448.194 119.765L445.573 118.872L445.818 117.129L453.143 116.744L451.373 129.341L451.571 129.368C452.127 128.477 452.93 127.742 453.981 127.162C455.032 126.583 456.323 126.401 457.855 126.616C459.122 126.794 460.236 127.207 461.195 127.853C462.158 128.473 462.931 129.295 463.515 130.32C464.098 131.344 464.493 132.558 464.699 133.96C464.91 135.336 464.896 136.869 464.659 138.559C464.421 140.249 464.01 141.74 463.425 143.031C462.843 144.296 462.131 145.34 461.288 146.164C460.445 146.988 459.473 147.579 458.373 147.936C457.276 148.266 456.094 148.343 454.826 148.164ZM453.841 145.118C455.346 145.329 456.62 144.983 457.663 144.079C458.705 143.176 459.355 141.813 459.611 139.991L460.201 135.792C460.457 133.97 460.208 132.481 459.455 131.325C458.702 130.169 457.573 129.485 456.068 129.273C455.46 129.188 454.866 129.199 454.286 129.306C453.735 129.39 453.212 129.572 452.714 129.852C452.244 130.136 451.843 130.497 451.512 130.935C451.208 131.377 451.013 131.902 450.927 132.509L449.792 140.59C449.706 141.197 449.749 141.755 449.92 142.264C450.117 142.777 450.403 143.234 450.777 143.637C451.178 144.043 451.629 144.376 452.131 144.635C452.664 144.871 453.234 145.032 453.841 145.118ZM466.577 147.15L469.271 147.528L472.689 123.207L470.067 122.314L470.312 120.571L477.637 120.187L473.707 148.152L476.4 148.531L476.1 150.67L466.276 149.289L466.577 147.15ZM488.533 152.902C487.001 152.686 485.677 152.244 484.559 151.576C483.445 150.88 482.545 150 481.86 148.934C481.175 147.869 480.701 146.644 480.438 145.261C480.201 143.881 480.195 142.386 480.422 140.775C480.652 139.137 481.084 137.69 481.719 136.433C482.38 135.179 483.184 134.148 484.133 133.339C485.111 132.507 486.204 131.92 487.41 131.578C488.646 131.213 489.951 131.127 491.324 131.32C492.723 131.517 493.944 131.931 494.987 132.562C496.033 133.167 496.879 133.945 497.526 134.898C498.2 135.854 498.664 136.956 498.92 138.204C499.175 139.452 499.201 140.802 498.997 142.254L498.846 143.324L485.22 141.409L485.042 142.676C484.753 144.736 485.043 146.406 485.913 147.686C486.787 148.94 488.096 149.689 489.839 149.934C491.37 150.15 492.645 149.992 493.662 149.462C494.709 148.909 495.527 148.162 496.117 147.222L497.676 148.491C497.342 149.144 496.891 149.768 496.322 150.361C495.781 150.958 495.129 151.472 494.369 151.904C493.608 152.336 492.741 152.658 491.769 152.872C490.8 153.059 489.721 153.069 488.533 152.902ZM485.515 139.309L494.547 140.579L494.608 140.143C494.875 138.242 494.711 136.724 494.117 135.59C493.552 134.434 492.517 133.75 491.012 133.538C489.533 133.33 488.325 133.686 487.388 134.604C486.455 135.496 485.855 136.893 485.588 138.794L485.515 139.309Z" fill="#EF5024"/>
</g>
<rect x="470.219" y="46.6375" width="262" height="72" rx="20" transform="rotate(-6 470.219 46.6375)" fill="#EF5024"/>
<path d="M552.857 87.0608L555.761 86.7556L553.294 63.2849L550.39 63.5901L550.164 61.4419L571.407 59.2092L572.143 66.2106L568.523 66.5911L568.034 61.9368L558.049 62.9862L559.148 73.4486L565.911 72.7378L565.614 69.9134L568.24 69.6374L569.08 77.6334L566.455 77.9093L566.158 75.0849L559.395 75.7957L560.495 86.258L564.194 85.8692L564.42 88.0174L553.083 89.209L552.857 87.0608ZM576.783 84.5461L579.488 84.2618L577.874 68.9064L575.115 68.6735L574.931 66.9232L581.825 64.7908L582.214 68.4904L582.413 68.4695C582.549 67.9726 582.727 67.4981 582.947 67.0459C583.192 66.5643 583.495 66.1303 583.856 65.7437C584.244 65.3544 584.692 65.0257 585.201 64.7578C585.735 64.4871 586.347 64.3155 587.037 64.243C588.257 64.1148 589.257 64.3181 590.037 64.8528C590.844 65.3847 591.307 66.2209 591.427 67.3612C591.522 68.2629 591.358 69.0041 590.936 69.5847C590.539 70.1359 589.942 70.4534 589.146 70.537C588.324 70.6234 587.652 70.4796 587.13 70.1054C586.632 69.7019 586.348 69.1687 586.278 68.5057C586.231 68.0548 586.285 67.6738 586.44 67.3626C586.592 67.0248 586.798 66.8155 587.057 66.7345L587.045 66.6152C586.962 66.597 586.868 66.5935 586.762 66.6047C586.653 66.5893 586.493 66.5928 586.281 66.6151C585.777 66.668 585.287 66.8536 584.811 67.1718C584.361 67.4871 583.96 67.8779 583.607 68.344C583.277 68.7809 583.021 69.277 582.838 69.8325C582.652 70.3615 582.586 70.878 582.639 71.3818L583.943 83.7935L587.444 83.4255L587.67 85.5737L577.009 86.6943L576.783 84.5461ZM605.099 84.2245C603.561 84.3861 602.169 84.2778 600.922 83.8993C599.673 83.4943 598.587 82.8577 597.665 81.9893C596.742 81.121 595.986 80.0475 595.396 78.7689C594.832 77.4874 594.465 76.0379 594.295 74.4201C594.122 72.7758 594.192 71.267 594.503 69.8936C594.841 68.5174 595.372 67.3219 596.097 66.3073C596.845 65.2634 597.763 64.4295 598.85 63.8058C599.962 63.1527 601.207 62.7537 602.586 62.6088C603.991 62.461 605.276 62.5673 606.44 62.9276C607.602 63.2614 608.611 63.8122 609.47 64.58C610.354 65.3451 611.072 66.302 611.621 67.4508C612.171 68.5996 612.523 69.9034 612.676 71.362L612.789 72.4361L599.104 73.8744L599.238 75.1474C599.456 77.216 600.141 78.7661 601.295 79.7978C602.447 80.803 603.898 81.2136 605.648 81.0296C607.186 80.8679 608.385 80.4068 609.243 79.6462C610.125 78.8563 610.739 77.9338 611.084 76.8786L612.903 77.7332C612.737 78.4478 612.45 79.1617 612.042 79.8749C611.661 80.5853 611.154 81.2419 610.52 81.8448C609.886 82.4477 609.123 82.9703 608.231 83.4126C607.337 83.8284 606.292 84.099 605.099 84.2245ZM598.883 71.766L607.953 70.8127L607.907 70.3751C607.706 68.4656 607.18 67.0328 606.329 66.0765C605.501 65.091 604.332 64.6776 602.82 64.8365C601.335 64.9926 600.249 65.6296 599.562 66.7475C598.872 67.8389 598.628 69.3394 598.828 71.2489L598.883 71.766ZM625.74 82.055C624.388 82.1971 623.259 82.0476 622.355 81.6064C621.451 81.1652 620.832 80.6403 620.5 80.0317L620.341 80.0484L620.558 82.117L617.535 82.4348L616.887 76.2687L619.91 75.951L619.986 76.667C620.103 77.7809 620.539 78.6198 621.296 79.1838C622.052 79.7479 623.2 79.949 624.738 79.7874C627.602 79.4863 628.928 78.328 628.716 76.3125C628.552 74.7477 627.409 73.8221 625.287 73.5357L623.085 73.2443C620.91 72.9634 619.251 72.3602 618.108 71.4346C616.965 70.509 616.299 69.1445 616.11 67.3411C615.906 65.4051 616.398 63.8384 617.586 62.641C618.774 61.4436 620.442 60.732 622.591 60.5062C623.917 60.3668 625.001 60.4807 625.844 60.848C626.687 61.2152 627.261 61.7045 627.567 62.3159L627.726 62.2992L627.534 60.4693L630.557 60.1515L631.205 66.3175L628.182 66.6353L628.061 65.4817C627.84 63.3865 626.312 62.4881 623.474 62.7864C622.254 62.9146 621.337 63.2522 620.725 63.7993C620.136 64.317 619.89 65.04 619.987 65.9682C620.16 67.6125 621.335 68.5883 623.513 68.8958L625.592 69.1599C627.79 69.4115 629.471 69.9722 630.635 70.8419C631.796 71.6852 632.476 73.0483 632.674 74.9312C632.874 76.8407 632.347 78.4514 631.09 79.7632C629.857 81.0458 628.074 81.8097 625.74 82.055ZM636.248 78.2961L638.953 78.0118L636.386 53.5863L633.626 53.3535L633.442 51.6031L640.456 49.4582L641.799 62.2278L641.998 62.2069C642.109 61.7393 642.301 61.2634 642.571 60.7791C642.869 60.292 643.238 59.851 643.679 59.4561C644.12 59.0611 644.648 58.7241 645.262 58.4451C645.876 58.166 646.581 57.9847 647.377 57.901C649.896 57.6362 651.755 58.0978 652.952 59.2858C654.147 60.4473 654.879 62.3143 655.15 64.8868L656.337 76.1846L659.042 75.9003L659.268 78.0484L649.482 79.077L649.256 76.9288L651.882 76.6529L650.719 65.5938C650.538 63.87 650.074 62.6451 649.328 61.9191C648.581 61.1932 647.492 60.9055 646.059 61.056C645.529 61.1118 645.007 61.2471 644.493 61.462C644.003 61.6475 643.563 61.9217 643.172 62.2846C642.805 62.6181 642.512 63.0242 642.295 63.503C642.103 63.9789 642.041 64.5351 642.108 65.1716L643.408 77.5435L646.034 77.2675L646.26 79.4157L636.474 80.4442L636.248 78.2961Z" fill="#FDB90A"/>
<defs>
<clipPath id="clip0_1_26">
<rect x="208" y="61.4894" width="377" height="72" rx="20" transform="rotate(8 208 61.4894)" fill="white"/>
</clipPath>
</defs>
</svg>
