<svg width="22" height="20" viewBox="0 0 22 20" fill="none" xmlns="http://www.w3.org/2000/svg">
<path fill-rule="evenodd" clip-rule="evenodd" d="M0.514709 0.603058C0.595943 0.196888 0.991062 -0.0665248 1.39723 0.0147091L2.44659 0.224581C3.63184 0.461631 4.52335 1.44482 4.64362 2.64754L4.72889 3.50014H18.3044C20.2886 3.50014 21.7445 5.36488 21.2633 7.28988L20.1405 11.7809C19.6675 13.6729 17.9676 15.0001 16.0174 15.0001H7.02449C5.63244 15.0001 4.45994 13.9599 4.29408 12.5778L3.3046 4.33215L3.15107 2.7968C3.0964 2.25011 2.69117 1.8032 2.15242 1.69545L1.10306 1.48558C0.696888 1.40435 0.433475 1.00923 0.514709 0.603058ZM8.25 10.5C7.83579 10.5 7.5 10.8358 7.5 11.25C7.5 11.6642 7.83579 12 8.25 12H12.25C12.6642 12 13 11.6642 13 11.25C13 10.8358 12.6642 10.5 12.25 10.5H8.25Z" fill="#02442F"/>
<circle cx="7.75024" cy="17.7502" r="1.5" fill="#02442F"/>
<circle cx="16.7502" cy="17.7502" r="1.5" fill="#02442F"/>
</svg>
